<svg width="138" height="45" viewBox="0 0 138 45" fill="none" xmlns="http://www.w3.org/2000/svg">
<path d="M8.38642 25.4027C6.66352 25.4027 5.03771 25.0994 3.5059 24.4898C1.97409 23.8816 0.805972 23.1135 0 22.1837L0.604091 21.3881C1.36383 22.2295 2.44257 22.9428 3.84031 23.528C5.23805 24.1148 6.74212 24.4075 8.35252 24.4075C9.9845 24.4075 11.3268 24.1865 12.3778 23.7445C13.4288 23.3025 14.2054 22.7111 14.7094 21.9688C15.2118 21.2281 15.4645 20.4051 15.4645 19.4967C15.4645 18.4344 15.1964 17.5839 14.6601 16.9423C14.1238 16.3006 13.4133 15.7931 12.5303 15.4166C11.6473 15.0401 10.6857 14.7307 9.64547 14.4884C8.60526 14.2445 7.55426 13.9854 6.49247 13.708C5.43068 13.4322 4.45673 13.0771 3.57371 12.6457C2.69068 12.2144 1.98642 11.6169 1.46092 10.8549C0.935418 10.0913 0.671898 9.10212 0.671898 7.88586C0.671898 6.8464 0.95083 5.87401 1.51023 4.96715C2.06964 4.06029 2.94188 3.32566 4.12695 2.76173C5.31202 2.1978 6.83304 1.91583 8.68847 1.91583C9.96293 1.91583 11.2204 2.1094 12.4625 2.49653C13.7031 2.88366 14.7602 3.39729 15.6325 4.03895L15.1301 4.93514C14.1916 4.24928 13.1514 3.74022 12.011 3.40948C10.8706 3.07722 9.77491 2.91109 8.72391 2.91109C7.1582 2.91109 5.85601 3.13819 4.8158 3.59086C3.77559 4.04505 3.00968 4.64708 2.51808 5.39848C2.02649 6.14987 1.77992 6.98053 1.77992 7.88586C1.77992 8.96952 2.04806 9.83218 2.58435 10.4738C3.12064 11.1155 3.83106 11.6246 4.71409 11.9995C5.59711 12.376 6.56489 12.6854 7.61589 12.9277C8.66689 13.1715 9.7179 13.4307 10.7689 13.708C11.8199 13.9854 12.7861 14.3436 13.6707 14.7856C14.5537 15.2276 15.258 15.8205 15.7835 16.5612C16.309 17.302 16.5725 18.2698 16.5725 19.4647C16.5725 20.5042 16.2874 21.4781 15.7172 22.3834C15.147 23.2903 14.2517 24.0203 13.0342 24.5736C11.8137 25.1253 10.265 25.4027 8.38642 25.4027Z" fill="#FF5722"/>
<path d="M29.4172 25.2686V2.04691H37.5678C39.5127 2.04691 41.1847 2.3563 42.5824 2.9751C43.9802 3.5939 45.0481 4.47332 45.7863 5.61185C46.5245 6.7519 46.8928 8.12819 46.8928 9.74225C46.8928 11.3563 46.5245 12.7402 45.7863 13.8894C45.0481 15.0401 43.9802 15.9241 42.5824 16.5429C41.1847 17.1617 39.5127 17.4711 37.5678 17.4711H30.0537L30.5576 16.9407V25.2671H29.4172V25.2686ZM30.5591 16.9423L30.0552 16.4439H37.6357C40.2739 16.4439 42.2927 15.8586 43.6905 14.685C45.0882 13.5129 45.7863 11.8654 45.7863 9.74225C45.7863 7.61913 45.0867 5.97612 43.6905 4.81625C42.2927 3.65486 40.2739 3.07417 37.6357 3.07417H30.0552L30.5591 2.54377V16.9423Z" fill="#FF5722"/>
<path d="M88.5552 25.2686V2.04691H96.7059C98.6507 2.04691 100.323 2.3563 101.72 2.9751C103.118 3.5939 104.186 4.47332 104.924 5.61185C105.662 6.7519 106.031 8.12819 106.031 9.74225C106.031 11.3563 105.662 12.7402 104.924 13.8894C104.186 15.0401 103.118 15.9241 101.72 16.5429C100.323 17.1617 98.6507 17.4711 96.7059 17.4711H89.1917L89.6941 16.9407V25.2671H88.5552V25.2686ZM89.6956 16.9423L89.1932 16.4439H96.7737C99.412 16.4439 101.431 15.8586 102.828 14.685C104.226 13.5129 104.924 11.8654 104.924 9.74225C104.924 7.61913 104.225 5.97612 102.828 4.81625C101.431 3.65486 99.412 3.07417 96.7737 3.07417H89.1932L89.6956 2.54377V16.9423ZM105.058 25.2686L98.9527 16.8417H100.261L106.399 25.2686H105.058Z" fill="#FF5722"/>
<path d="M119.347 25.2686V2.04691H120.487V25.2701H119.347V25.2686ZM120.321 19.297L120.287 17.8705L135.852 2.04538H137.26L126.761 12.7616L126.091 13.4246L120.321 19.297ZM136.59 25.2686L125.688 12.9932L126.461 12.2296L138 25.2671H136.59V25.2686Z" fill="#FF5722"/>
<path d="M33.4209 45C32.8815 45 32.3745 44.9451 31.9014 44.8354C31.4283 44.7257 31.0554 44.6037 30.781 44.4696V42.6589H30.9059C31.1139 43.2869 31.4468 43.7883 31.9076 44.1632C32.3683 44.5382 32.8846 44.7241 33.4579 44.7241C34.0142 44.7241 34.4595 44.587 34.797 44.3111C35.133 44.0352 35.301 43.6831 35.301 43.2518C35.301 42.9409 35.207 42.6818 35.0205 42.473C34.834 42.2642 34.5952 42.095 34.3039 41.9654C34.0126 41.8344 33.6613 41.7124 33.2452 41.5997C32.6812 41.4366 32.225 41.2781 31.8752 41.1226C31.5269 40.9671 31.2418 40.7522 31.023 40.4764C30.8026 40.2005 30.6932 39.8484 30.6932 39.4171C30.6932 39.0223 30.8072 38.6672 31.0353 38.3533C31.2634 38.0393 31.587 37.7939 32.0062 37.6171C32.4254 37.4403 32.9092 37.3519 33.4563 37.3519C33.8878 37.3519 34.3178 37.4007 34.7446 37.4997C35.1715 37.5988 35.5152 37.704 35.7725 37.8168V39.4796H35.6477C35.4489 38.9141 35.1469 38.4645 34.7446 38.1292C34.3424 37.7939 33.8539 37.6262 33.2822 37.6262C32.9663 37.6262 32.6781 37.6811 32.4161 37.7908C32.1541 37.9006 31.9445 38.0591 31.7874 38.2679C31.6302 38.4767 31.5516 38.7221 31.5516 39.0041C31.5516 39.286 31.6456 39.5223 31.832 39.7128C32.0185 39.9033 32.2589 40.0618 32.5548 40.1898C32.8491 40.3163 33.2252 40.4474 33.6813 40.5815C34.2376 40.7446 34.6876 40.9031 35.0328 41.0586C35.3765 41.2141 35.6693 41.4366 35.9112 41.7262C36.1516 42.0157 36.2718 42.3892 36.2718 42.8479C36.2718 43.264 36.1485 43.6374 35.9051 43.9651C35.66 44.2928 35.3225 44.5473 34.891 44.7272C34.458 44.9101 33.9695 45 33.4209 45Z" fill="#1A1A1A"/>
<path d="M46.0961 44.8308C46.2039 44.7043 46.2948 44.5443 46.3704 44.3538C46.4443 44.1633 46.4829 43.9697 46.4829 43.7716V37.6933H45.6861C45.2546 37.6933 44.891 37.7573 44.5966 37.8838C44.3023 38.0103 44.0572 38.1856 43.8615 38.4081C43.6658 38.6307 43.4824 38.9111 43.3067 39.2495H43.1819L43.4562 37.4708H50.7023L50.9642 39.2495H50.8394C50.673 38.9111 50.4911 38.6307 50.2923 38.4081C50.0936 38.1856 49.8454 38.0103 49.5511 37.8838C49.2568 37.7573 48.8977 37.6933 48.4739 37.6933H47.6649V43.7716C47.6649 43.9697 47.7018 44.1633 47.7773 44.3538C47.8513 44.5443 47.9438 44.7028 48.0517 44.8308V44.8842H46.0976V44.8308H46.0961Z" fill="#1A1A1A"/>
<path d="M61.821 45C60.7746 45 59.9548 44.7897 59.3615 44.3705C58.7682 43.9514 58.4707 43.3555 58.4707 42.5858V38.5834C58.4707 38.3853 58.4337 38.1917 58.3582 38.0012C58.2843 37.8107 58.1918 37.6522 58.0839 37.5241V37.4708H60.038V37.5241C59.9301 37.6506 59.8392 37.8107 59.7637 38.0012C59.6897 38.1917 59.6512 38.3868 59.6512 38.5834V42.5858C59.6512 43.2488 59.8731 43.7624 60.3169 44.1267C60.7607 44.4909 61.3479 44.6723 62.0783 44.6723C62.8088 44.6723 63.3959 44.4909 63.8398 44.1267C64.2836 43.7639 64.5055 43.2503 64.5055 42.5858V38.5834C64.5055 38.3929 64.4593 38.2161 64.3684 38.0545C64.2774 37.893 64.1403 37.7162 63.9569 37.5257V37.4723H65.3762V37.5257C65.1928 37.7162 65.0572 37.893 64.9647 38.0545C64.8738 38.2176 64.8276 38.3929 64.8276 38.5834V42.5858C64.8276 43.3478 64.5579 43.9407 64.0185 44.3644C63.4838 44.7882 62.7502 45 61.821 45Z" fill="#1A1A1A"/>
<path d="M73.2988 44.8308C73.4066 44.7043 73.4976 44.5443 73.5731 44.3538C73.6486 44.1633 73.6856 43.9697 73.6856 43.7716V38.5834C73.6856 38.3853 73.6486 38.1917 73.5731 38.0012C73.4991 37.8107 73.4066 37.6522 73.2988 37.5241V37.4708H76.461C77.2747 37.4708 78.0175 37.5942 78.6894 37.8412C79.3613 38.0881 79.9037 38.4874 80.3136 39.0376C80.7251 39.5878 80.9301 40.3011 80.9301 41.176C80.9301 42.0508 80.7251 42.7641 80.3136 43.3143C79.9022 43.8645 79.3613 44.2639 78.6894 44.5108C78.0175 44.7577 77.2747 44.8811 76.461 44.8811H73.2988V44.8308ZM76.1759 44.651C76.8401 44.651 77.4288 44.5351 77.9435 44.302C78.4582 44.0688 78.8666 43.6923 79.1702 43.1741C79.4738 42.6559 79.6248 41.9898 79.6248 41.1775C79.6248 40.3651 79.4738 39.7021 79.1702 39.187C78.8666 38.6718 78.4582 38.2953 77.9435 38.0591C77.4288 37.8229 76.8401 37.704 76.1759 37.704C75.7783 37.704 75.3422 37.7573 74.8691 37.8625V44.4909C75.3407 44.5976 75.7768 44.651 76.1759 44.651Z" fill="#1A1A1A"/>
<path d="M88.8003 44.8308C88.9081 44.7043 88.9991 44.5443 89.0746 44.3538C89.1501 44.1633 89.1871 43.9697 89.1871 43.7716V38.5834C89.1871 38.3853 89.1501 38.1917 89.0746 38.0012C89.0006 37.8107 88.9081 37.6522 88.8003 37.5241V37.4708H90.7173V37.5241C90.6095 37.6506 90.5185 37.8107 90.443 38.0012C90.3675 38.1917 90.3305 38.3868 90.3305 38.5834V43.7716C90.3305 43.9697 90.3675 44.1633 90.443 44.3538C90.517 44.5443 90.6095 44.7028 90.7173 44.8308V44.8842H88.8003V44.8308Z" fill="#1A1A1A"/>
<path d="M102.608 45C101.811 45 101.11 44.8415 100.505 44.5229C99.899 44.2059 99.4274 43.7563 99.0915 43.1787C98.7555 42.601 98.5875 41.9334 98.5875 41.1775C98.5875 40.4215 98.7555 39.7555 99.0915 39.1763C99.4274 38.5971 99.899 38.149 100.505 37.832C101.11 37.515 101.811 37.3549 102.608 37.3549C103.405 37.3549 104.106 37.5135 104.712 37.832C105.317 38.149 105.789 38.5986 106.125 39.1763C106.461 39.7555 106.629 40.423 106.629 41.1775C106.629 41.9334 106.461 42.5995 106.125 43.1787C105.789 43.7578 105.317 44.2059 104.712 44.5229C104.106 44.8415 103.405 45 102.608 45ZM102.608 44.7668C103.148 44.7668 103.622 44.6144 104.034 44.3111C104.445 44.0078 104.763 43.5841 104.986 43.04C105.209 42.4958 105.322 41.8755 105.322 41.176C105.322 40.4764 105.209 39.856 104.986 39.3119C104.763 38.7678 104.445 38.3456 104.034 38.0408C103.622 37.7375 103.148 37.5851 102.608 37.5851C102.069 37.5851 101.594 37.7375 101.183 38.0408C100.771 38.3441 100.454 38.7678 100.23 39.3119C100.007 39.856 99.8943 40.4764 99.8943 41.176C99.8943 41.8755 100.007 42.4958 100.23 43.04C100.454 43.5841 100.771 44.0078 101.183 44.3111C101.593 44.6159 102.067 44.7668 102.608 44.7668Z" fill="#1A1A1A"/>
<path d="M76.0835 25.8066H59.3877L59.83 24.8555C62.5792 19.2894 66.1622 15.8342 69.4908 13.6882L68.9129 12.4583C65.7938 13.516 63.1586 15.0097 61.1522 16.3859C57.0006 19.233 54.5673 22.2066 54.5441 22.2356L52.2942 24.8296L63.96 0L69.3475 11.4676C72.0767 10.6186 75.1434 10.1096 78.4644 10.2666L82.2384 10.4449L78.5137 11.0667C78.4891 11.0713 78.449 11.0774 78.3951 11.085C77.0173 11.2801 73.9599 11.9263 70.5341 13.9915L76.0835 25.8066ZM60.6683 24.9988H74.8029L69.8376 14.429C66.683 16.4835 63.2989 19.7634 60.6683 24.9988ZM63.96 1.91736L55.4241 20.0835C56.5706 18.9373 58.3444 17.3309 60.6637 15.7367C62.7071 14.3329 65.3901 12.8088 68.5647 11.7221L63.96 1.91736ZM69.6943 12.2068L70.1874 13.2569C71.7901 12.2997 73.3157 11.6398 74.6349 11.1871C72.8889 11.3731 71.2384 11.7328 69.6943 12.2068Z" fill="#FF5722"/>
<path d="M81.5115 10.5032C82.2684 7.66682 82.774 5.33924 82.6406 5.30444C82.5073 5.26964 81.7856 7.5408 81.0287 10.3772C80.2717 13.2136 79.7662 15.5412 79.8995 15.576C80.0328 15.6108 80.7545 13.3397 81.5115 10.5032Z" fill="#FF5722"/>
<path d="M86.4629 11.7957C86.4981 11.6639 84.2017 10.9501 81.3338 10.2015C78.4659 9.45284 76.1124 8.95284 76.0773 9.08469C76.0421 9.21654 78.3385 9.93031 81.2064 10.6789C84.0743 11.4276 86.4277 11.9276 86.4629 11.7957Z" fill="#FF5722"/>
</svg>
